{
    "accessors" : [
        {
            "bufferView" : 0,
            "componentType" : 5123,
            "count" : 1668,
            "max" : [
                1131
            ],
            "min" : [
                0
            ],
            "type" : "SCALAR"
        },
        {
            "bufferView" : 1,
            "componentType" : 5126,
            "count" : 1132,
            "max" : [
                2.4365413188934326,
                0.0018368106102570891,
                1.514045238494873
            ],
            "min" : [
                -1.2503612041473389,
                -2.161783456802368,
                -1.366043210029602
            ],
            "type" : "VEC3"
        },
        {
            "bufferView" : 2,
            "componentType" : 5126,
            "count" : 1132,
            "max" : [
                0.9938120245933533,
                0.9825764298439026,
                0.9907016158103943
            ],
            "min" : [
                -0.9969825148582458,
                -0.9997602701187134,
                -0.9964602589607239
            ],
            "type" : "VEC3"
        },
        {
            "bufferView" : 3,
            "componentType" : 5126,
            "count" : 1132,
            "max" : [
                1.0,
                1.0,
                1.0,
                1.0
            ],
            "min" : [
                1.0,
                1.0,
                1.0,
                1.0
            ],
            "type" : "VEC4"
        }
    ],
    "asset" : {
        "generator" : "Khronos Blender glTF 2.0 exporter",
        "version" : "2.0"
    },
    "bufferViews" : [
        {
            "buffer" : 0,
            "byteLength" : 3336,
            "byteOffset" : 0,
            "target" : 34963
        },
        {
            "buffer" : 0,
            "byteLength" : 13584,
            "byteOffset" : 3336,
            "target" : 34962
        },
        {
            "buffer" : 0,
            "byteLength" : 13584,
            "byteOffset" : 16920,
            "target" : 34962
        },
        {
            "buffer" : 0,
            "byteLength" : 18112,
            "byteOffset" : 30504,
            "target" : 34962
        }
    ],
    "buffers" : [
        {
            "byteLength" : 48616,
            "uri" : "galateea-gltf.bin"
        }
    ],
    "meshes" : [
        {
            "name" : "Sphere.000",
            "primitives" : [
                {
                    "attributes" : {
                        "COLOR_0" : 3,
                        "NORMAL" : 2,
                        "POSITION" : 1
                    },
                    "indices" : 0
                }
            ]
        }
    ],
    "nodes" : [
        {
            "mesh" : 0,
            "name" : "head",
            "rotation" : [
                -0.007189216557890177,
                -0.007189554627984762,
                -0.7070702314376831,
                0.7070702314376831
            ],
            "scale" : [
                -1.84883713722229,
                -1.910294532775879,
                -1.910270094871521
            ],
            "translation" : [
                5.9604644775390625e-05,
                3.0669455528259277,
                -0.3873176574707031
            ]
        }
    ],
    "scene" : 0,
    "scenes" : [
        {
            "name" : "Scene",
            "nodes" : [
                0
            ]
        }
    ]
}
