{
    "accessors" : [
        {
            "bufferView" : 0,
            "componentType" : 5123,
            "count" : 1668,
            "max" : [
                1131
            ],
            "min" : [
                0
            ],
            "type" : "SCALAR"
        },
        {
            "bufferView" : 1,
            "componentType" : 5126,
            "count" : 1132,
            "max" : [
                2.4365413188934326,
                0.0018368106102570891,
                1.514045238494873
            ],
            "min" : [
                -1.2503612041473389,
                -2.161783456802368,
                -1.366043210029602
            ],
            "type" : "VEC3"
        },
        {
            "bufferView" : 2,
            "componentType" : 5126,
            "count" : 1132,
            "max" : [
                0.9938120245933533,
                0.9825764298439026,
                0.9907016158103943
            ],
            "min" : [
                -0.9969825148582458,
                -0.9997602701187134,
                -0.9964602589607239
            ],
            "type" : "VEC3"
        },
        {
            "bufferView" : 3,
            "componentType" : 5126,
            "count" : 1132,
            "max" : [
                1.0,
                1.0,
                1.0,
                1.0
            ],
            "min" : [
                1.0,
                1.0,
                1.0,
                1.0
            ],
            "type" : "VEC4"
        }
    ],
    "asset" : {
        "generator" : "Khronos Blender glTF 2.0 exporter",
        "version" : "2.0"
    },
    "bufferViews" : [
        {
            "buffer" : 0,
            "byteLength" : 3336,
            "byteOffset" : 0,
            "target" : 34963
        },
        {
            "buffer" : 0,
            "byteLength" : 13584,
            "byteOffset" : 3336,
            "target" : 34962
        },
        {
            "buffer" : 0,
            "byteLength" : 13584,
            "byteOffset" : 16920,
            "target" : 34962
        },
        {
            "buffer" : 0,
            "byteLength" : 18112,
            "byteOffset" : 30504,
            "target" : 34962
        }
    ],
    "buffers" : [
        {
            "byteLength" : 48616,
            "uri" : "galateea-ramp-animated.bin"
        }
    ],
    "meshes" : [
        {
            "name" : "Sphere.000",
            "primitives" : [
                {
                    "attributes" : {
                        "COLOR_0" : 3,
                        "NORMAL" : 2,
                        "POSITION" : 1
                    },
                    "indices" : 0
                }
            ]
        }
    ],
    "nodes" : [
        {
            "name" : "Camera",
            "rotation" : [
                0.7393725514411926,
                -0.059495218098163605,
                0.06590839475393295,
                0.6674163937568665
            ],
            "scale" : [
                0.9999999403953552,
                1.0000001192092896,
                1.0
            ],
            "translation" : [
                -2.310406446456909,
                3.404623508453369,
                12.096068382263184
            ]
        },
        {
            "name" : "Camera.001",
            "rotation" : [
                0.7436372637748718,
                -0.19477373361587524,
                0.2451953887939453,
                0.590716540813446
            ],
            "scale" : [
                1.0,
                0.9999999403953552,
                1.0
            ],
            "translation" : [
                -6.982476711273193,
                1.6858887672424316,
                9.448372840881348
            ]
        },
        {
            "name" : "front",
            "rotation" : [
                0.7602938413619995,
                0.0,
                -0.0,
                0.6495792865753174
            ],
            "translation" : [
                0.0,
                2.6732730865478516,
                12.302994728088379
            ]
        },
        {
            "name" : "front.006",
            "rotation" : [
                0.516327440738678,
                0.4831211268901825,
                -0.516327440738678,
                0.4831210672855377
            ],
            "translation" : [
                10.855559349060059,
                3.4287734031677246,
                -0.3872584402561188
            ]
        },
        {
            "mesh" : 0,
            "name" : "head",
            "rotation" : [
                -0.007189216557890177,
                -0.007189554627984762,
                -0.7070702314376831,
                0.7070702314376831
            ],
            "scale" : [
                -1.84883713722229,
                -1.910294532775879,
                -1.910270094871521
            ],
            "translation" : [
                5.9604644775390625e-05,
                3.0669455528259277,
                -0.3873176574707031
            ]
        },
        {
            "name" : "Point",
            "translation" : [
                3.210675001144409,
                2.688246488571167,
                2.251647472381592
            ]
        },
        {
            "name" : "Point.001",
            "translation" : [
                -3.995270013809204,
                9.453939437866211,
                -3.71875
            ]
        },
        {
            "name" : "Sun",
            "rotation" : [
                -0.08360904455184937,
                0.9658564925193787,
                0.24430212378501892,
                0.0211480800062418
            ],
            "scale" : [
                0.9999999403953552,
                1.0,
                1.0
            ],
            "translation" : [
                -1.9663281440734863,
                12.984045028686523,
                4.972416877746582
            ]
        }
    ],
    "scene" : 0,
    "scenes" : [
        {
            "name" : "Scene",
            "nodes" : [
                2,
                1,
                4,
                7,
                5,
                0,
                6,
                3
            ]
        }
    ]
}
